<svg version="1.1" xmlns="http://www.w3.org/2000/svg" xmlns:xlink="http://www.w3.org/1999/xlink" width="200.09747" height="64.23686" viewBox="0,0,200.09747,64.23686"><g transform="translate(-5.50001,-4.04547)"><g stroke-miterlimit="10"><path d="M10.29009,65.78232c-1.26478,0 -2.29008,-1.0253 -2.29008,-2.29008v-54.65667c0,-1.26478 1.0253,-2.29009 2.29008,-2.29009h88.24458c1.26478,0 2.29008,1.02531 2.29008,2.29009v54.65668c0,1.26478 -1.0253,2.29008 -2.29008,2.29008z" fill="#ffffff" stroke="#000000" stroke-width="5"/><text transform="translate(54.36363,23.43856) scale(0.21617,0.21617)" font-size="40" xml:space="preserve" fill="#000000" stroke="none" stroke-width="1" font-family="Bits and Bytes" font-weight="normal" text-anchor="middle"><tspan x="0" dy="0">Buildings</tspan></text><path d="M112.56282,65.78231c-1.26478,0 -2.29008,-1.0253 -2.29008,-2.29008v-54.65667c0,-1.26478 1.0253,-2.29009 2.29008,-2.29009h88.24458c1.26478,0 2.29008,1.02531 2.29008,2.29009v54.65668c0,1.26478 -1.0253,2.29008 -2.29008,2.29008z" fill="#ffffff" stroke="#000000" stroke-width="5"/><text transform="translate(156.63636,23.43856) scale(0.21617,0.21617)" font-size="40" xml:space="preserve" fill="#000000" stroke="none" stroke-width="1" font-family="Bits and Bytes" font-weight="normal" text-anchor="middle"><tspan x="0" dy="0">Points</tspan></text></g></g></svg>