<svg version="1.1" xmlns="http://www.w3.org/2000/svg" xmlns:xlink="http://www.w3.org/1999/xlink" width="118.7148" height="172.13366" viewBox="0,0,118.7148,172.13366"><defs><linearGradient x1="272.1665" y1="337.4843" x2="275.014" y2="228.1382" gradientUnits="userSpaceOnUse" id="color-1"><stop offset="0" stop-color="#81d3f1"/><stop offset="0.3076" stop-color="#7fd0ef"/><stop offset="0.495" stop-color="#78c7e8"/><stop offset="0.6502" stop-color="#6dbbdf"/><stop offset="0.787" stop-color="#5dabd3"/><stop offset="0.91" stop-color="#4998c4"/><stop offset="1" stop-color="#4a99c5"/><stop offset="1" stop-color="#000000"/></linearGradient><linearGradient x1="283.2454" y1="337.7728" x2="286.0929" y2="228.4268" gradientUnits="userSpaceOnUse" id="color-2"><stop offset="0" stop-color="#81d3f1"/><stop offset="0.3076" stop-color="#7fd0ef"/><stop offset="0.495" stop-color="#78c7e8"/><stop offset="0.6502" stop-color="#6dbbdf"/><stop offset="0.787" stop-color="#5dabd3"/><stop offset="0.91" stop-color="#4998c4"/><stop offset="1" stop-color="#4a99c5"/><stop offset="1" stop-color="#000000"/></linearGradient><linearGradient x1="294.2575" y1="338.0596" x2="297.105" y2="228.7135" gradientUnits="userSpaceOnUse" id="color-3"><stop offset="0" stop-color="#81d3f1"/><stop offset="0.3076" stop-color="#7fd0ef"/><stop offset="0.495" stop-color="#78c7e8"/><stop offset="0.6502" stop-color="#6dbbdf"/><stop offset="0.787" stop-color="#5dabd3"/><stop offset="0.91" stop-color="#4998c4"/><stop offset="1" stop-color="#4a99c5"/><stop offset="1" stop-color="#000000"/></linearGradient><linearGradient x1="305.2696" y1="338.3463" x2="308.1172" y2="229.0003" gradientUnits="userSpaceOnUse" id="color-4"><stop offset="0" stop-color="#81d3f1"/><stop offset="0.3076" stop-color="#7fd0ef"/><stop offset="0.495" stop-color="#78c7e8"/><stop offset="0.6502" stop-color="#6dbbdf"/><stop offset="0.787" stop-color="#5dabd3"/><stop offset="0.91" stop-color="#4998c4"/><stop offset="1" stop-color="#4a99c5"/><stop offset="1" stop-color="#000000"/></linearGradient><linearGradient x1="316.2817" y1="338.6331" x2="319.1293" y2="229.2871" gradientUnits="userSpaceOnUse" id="color-5"><stop offset="0" stop-color="#81d3f1"/><stop offset="0.3076" stop-color="#7fd0ef"/><stop offset="0.495" stop-color="#78c7e8"/><stop offset="0.6502" stop-color="#6dbbdf"/><stop offset="0.787" stop-color="#5dabd3"/><stop offset="0.91" stop-color="#4998c4"/><stop offset="1" stop-color="#4a99c5"/><stop offset="1" stop-color="#000000"/></linearGradient><linearGradient x1="327.2938" y1="338.9199" x2="330.1414" y2="229.5739" gradientUnits="userSpaceOnUse" id="color-6"><stop offset="0" stop-color="#81d3f1"/><stop offset="0.3076" stop-color="#7fd0ef"/><stop offset="0.495" stop-color="#78c7e8"/><stop offset="0.6502" stop-color="#6dbbdf"/><stop offset="0.787" stop-color="#5dabd3"/><stop offset="0.91" stop-color="#4998c4"/><stop offset="1" stop-color="#4a99c5"/><stop offset="1" stop-color="#000000"/></linearGradient><linearGradient x1="338.328" y1="339.2072" x2="341.1755" y2="229.8612" gradientUnits="userSpaceOnUse" id="color-7"><stop offset="0" stop-color="#81d3f1"/><stop offset="0.3076" stop-color="#7fd0ef"/><stop offset="0.495" stop-color="#78c7e8"/><stop offset="0.6502" stop-color="#6dbbdf"/><stop offset="0.787" stop-color="#5dabd3"/><stop offset="0.91" stop-color="#4998c4"/><stop offset="1" stop-color="#4a99c5"/><stop offset="1" stop-color="#000000"/></linearGradient></defs><g transform="translate(-260.64444,-189.11634)"><g stroke-miterlimit="10"><path d="M350.1,360h-88.2l0.5,-112.7l9.2,-18.4h20.5l8.5,-34.2l49.5,-4zM302.3,204.8v0l0.5,36.8l43.8,-1.4v-33.7v-4.8l-36.3,2.6l-0.1,-0.1l-7.9,0.6zM268.4,316.3v16.5h8.1v-24.4v-56.2h-8.1zM281.8,332.7h6v-5.9v-29.4v-45.2h-8.1v53.1v27.5h2.1zM291.1,333h8.1v-17v-29.4v-34.3h-8.1v42.1v29.4v9zM310.5,332.8v-28v-29.3v-23.3h-8.1v31.2v29.3v20.1zM321.8,332.8v-39v-29.2v-12.3h-8.1v20.2v29.2v31.1zM333.1,332.8v-50.1v-29.1v-1.4h-8.1v9.3v29.2v42.1zM336.3,332.7h8.1v-61.1v-19.4h-8.1v27.4z" fill="#c3e8f3" stroke="#0cff00" stroke-width="2.5"/><path d="M276.6,252.2v56.2l-8.2,7.8v-64h8.2" fill="#c3e8f3" stroke="none" stroke-width="1"/><path d="M276.6,252.2v56.2l-8.2,7.8v-64h8.2" fill="#5dabd3" stroke="none" stroke-width="1"/><path d="M287.9,252.2v45.2l-8.2,7.9v-53.1h8.2" fill="#c3e8f3" stroke="none" stroke-width="1"/><path d="M287.9,252.2v45.2l-8.2,7.9v-53.1h8.2" fill="#5dabd3" stroke="none" stroke-width="1"/><path d="M281.8,332.8l6.1,-5.9v5.9h-6.1" fill="#c3e8f3" stroke="none" stroke-width="1"/><path d="M281.8,332.8l6.1,-5.9v5.9h-6.1" fill="#70bfe2" stroke="none" stroke-width="1"/><path d="M299.2,252.2v34.3l-8.1,7.8v-42.1h8.1" fill="#c3e8f3" stroke="none" stroke-width="1"/><path d="M299.2,252.2v34.3l-8.1,7.8v-42.1h8.1" fill="#5dabd3" stroke="none" stroke-width="1"/><path d="M291.1,323.7l8.1,-7.9v17h-8.1v-9.1" fill="#c3e8f3" stroke="none" stroke-width="1"/><path d="M291.1,323.7l8.1,-7.9v17h-8.1v-9.1" fill="#70bfe2" stroke="none" stroke-width="1"/><path d="M302.4,312.7l8.1,-7.9v28h-8.1v-20.1" fill="#c3e8f3" stroke="none" stroke-width="1"/><path d="M302.4,312.7l8.1,-7.9v28h-8.1v-20.1" fill="#70bfe2" stroke="none" stroke-width="1"/><path d="M310.5,252.2v23.3l-8.1,7.9v-31.2h8.1" fill="#c3e8f3" stroke="none" stroke-width="1"/><path d="M310.5,252.2v23.3l-8.1,7.9v-31.2h8.1" fill="#5dabd3" stroke="none" stroke-width="1"/><path d="M321.8,252.2v12.4l-8.1,7.8v-20.2h8.1" fill="#c3e8f3" stroke="none" stroke-width="1"/><path d="M321.8,252.2v12.4l-8.1,7.8v-20.2h8.1" fill="#5dabd3" stroke="none" stroke-width="1"/><path d="M313.7,301.7l8.1,-8v39.1h-8.1v-31.1" fill="#c3e8f3" stroke="none" stroke-width="1"/><path d="M313.7,301.7l8.1,-8v39.1h-8.1v-31.1" fill="#70bfe2" stroke="none" stroke-width="1"/><path d="M333.1,252.2v1.4l-8.1,7.9v-9.3h8.1" fill="#c3e8f3" stroke="none" stroke-width="1"/><path d="M333.1,252.2v1.4l-8.1,7.9v-9.3h8.1" fill="#5dabd3" stroke="none" stroke-width="1"/><path d="M325,290.6l8.1,-7.9v50.1h-8.1v-42.2" fill="#c3e8f3" stroke="none" stroke-width="1"/><path d="M325,290.6l8.1,-7.9v50.1h-8.1v-42.2" fill="#70bfe2" stroke="none" stroke-width="1"/><path d="M344.4,271.6v61.2h-8.1v-53.2l8.1,-8" fill="#c3e8f3" stroke="none" stroke-width="1"/><path d="M344.4,271.6v61.2h-8.1v-53.2l8.1,-8" fill="#70bfe2" stroke="none" stroke-width="1"/><path d="M350.1,360v-169.3l26.8,6.4l1.2,162.9h-28" fill="#40b4e5" stroke="#0cff00" stroke-width="2.5"/><path d="M321.5,232.1l-11.3,-27.8l36.3,-2.6l-7.6,0.7l-11.5,29.5zM315.8,204l7.9,17.1l8.3,-18.4z" fill="#c3e8f3" stroke="none" stroke-width="1"/><path d="M321.5,232.1l-11.3,-27.8l36.3,-2.6l-7.6,0.7l-11.5,29.5zM315.8,204l7.9,17.1l8.3,-18.4z" fill="#5dabd3" stroke="none" stroke-width="1"/><path d="M302.7,241.6l-0.5,-36.7h0.1l14.9,36l14.3,-0.3l15,-34.1v33.7l-43.8,1.4" fill="#c3e8f3" stroke="none" stroke-width="1"/><path d="M302.7,241.6l-0.5,-36.7h0.1l14.9,36l14.3,-0.3l15,-34.1v33.7l-43.8,1.4" fill="#7dceed" stroke="none" stroke-width="1"/><path d="M331.5,240.6l-14.3,0.3l-14.9,-36v-0.1l7.8,-0.6l0.1,0.1l11.2,27.8l6,-0.2l11.5,-29.5l7.6,-0.7v4.8l-15,34.1" fill="#9bdbf1" stroke="none" stroke-width="1"/><path d="M332,202.7l-8.3,18.4l-7.9,-17.1l16.2,-1.3" fill="#9bdbf1" stroke="none" stroke-width="1"/><path d="M276.6,332.8h-8.2v-16.6l8.2,-7.8v24.4" fill="#c3e8f3" stroke="none" stroke-width="1"/><path d="M276.6,332.8h-8.2v-16.6l8.2,-7.8v24.4" fill="url(#color-1)" stroke="none" stroke-width="1"/><path d="M276.6,332.8h-8.2v-16.6l8.2,-7.8v24.4" fill="#d9f0f6" stroke="none" stroke-width="1" opacity="0.56"/><path d="M287.9,297.4v29.5l-6.1,5.9h-2.1v-27.5l8.2,-7.9" fill="#c3e8f3" stroke="none" stroke-width="1"/><path d="M287.9,297.4v29.5l-6.1,5.9h-2.1v-27.5l8.2,-7.9" fill="url(#color-2)" stroke="none" stroke-width="1"/><path d="M287.9,297.4v29.5l-6.1,5.9h-2.1v-27.5l8.2,-7.9" fill="#d9f0f6" stroke="none" stroke-width="1" opacity="0.56"/><path d="M299.2,286.5v29.3l-8.1,7.9v-29.4l8.1,-7.8" fill="#c3e8f3" stroke="none" stroke-width="1"/><path d="M299.2,286.5v29.3l-8.1,7.9v-29.4l8.1,-7.8" fill="url(#color-3)" stroke="none" stroke-width="1"/><path d="M299.2,286.5v29.3l-8.1,7.9v-29.4l8.1,-7.8" fill="#d9f0f6" stroke="none" stroke-width="1" opacity="0.56"/><path d="M310.5,275.5v29.3l-8.1,7.9v-29.3l8.1,-7.9" fill="#c3e8f3" stroke="none" stroke-width="1"/><path d="M310.5,275.5v29.3l-8.1,7.9v-29.3l8.1,-7.9" fill="url(#color-4)" stroke="none" stroke-width="1"/><path d="M310.5,275.5v29.3l-8.1,7.9v-29.3l8.1,-7.9" fill="#d9f0f6" stroke="none" stroke-width="1" opacity="0.56"/><path d="M321.8,264.6v29.1l-8.1,8v-29.3l8.1,-7.8" fill="#c3e8f3" stroke="none" stroke-width="1"/><path d="M321.8,264.6v29.1l-8.1,8v-29.3l8.1,-7.8" fill="url(#color-5)" stroke="none" stroke-width="1"/><path d="M321.8,264.6v29.1l-8.1,8v-29.3l8.1,-7.8" fill="#d9f0f6" stroke="none" stroke-width="1" opacity="0.56"/><path d="M333.1,253.6v29.1l-8.1,7.9v-29.1l8.1,-7.9" fill="#c3e8f3" stroke="none" stroke-width="1"/><path d="M333.1,253.6v29.1l-8.1,7.9v-29.1l8.1,-7.9" fill="url(#color-6)" stroke="none" stroke-width="1"/><path d="M333.1,253.6v29.1l-8.1,7.9v-29.1l8.1,-7.9" fill="#d9f0f6" stroke="none" stroke-width="1" opacity="0.56"/><path d="M344.4,252.2v19.4l-8.1,8v-27.4h8.1" fill="#c3e8f3" stroke="none" stroke-width="1"/><path d="M344.4,252.2v19.4l-8.1,8v-27.4h8.1" fill="url(#color-7)" stroke="none" stroke-width="1"/><path d="M344.4,252.2v19.4l-8.1,8v-27.4h8.1" fill="#d9f0f6" stroke="none" stroke-width="1" opacity="0.56"/></g></g></svg>