<svg version="1.1" xmlns="http://www.w3.org/2000/svg" xmlns:xlink="http://www.w3.org/1999/xlink" width="416.03102" height="248.78646" viewBox="0,0,416.03102,248.78646"><g transform="translate(-111.98449,-55.60677)"><g stroke="none" stroke-miterlimit="10"><path d="M528.01551,265.23593c0,21.62411 -17.6194,39.1573 -39.33964,39.1573h-337.35631c-21.72481,0 -39.33507,-17.53774 -39.33507,-39.1573v-170.47642c0,-21.62411 17.61026,-39.15274 39.33507,-39.15274h337.35174c21.73396,0 39.33964,17.52863 39.33964,39.15274v170.47642z" fill="#a7a9ac"/><path d="M513.27351,91.30832v177.38807c0,13.55199 -10.68639,24.57541 -23.83887,24.57541h-338.87386c-13.1387,0 -23.83428,-11.02342 -23.83428,-24.57541v-177.3928c0,-13.55199 10.69558,-24.57541 23.83428,-24.57541h338.87386c13.15249,0 23.83887,11.02815 23.83887,24.58014z" fill="#d1d2d3"/></g></g></svg>