<svg version="1.1" xmlns="http://www.w3.org/2000/svg" xmlns:xlink="http://www.w3.org/1999/xlink" width="65" height="65" viewBox="0,0,65,65"><defs><linearGradient x1="307.4839" y1="201.20872" x2="308.25257" y2="171.69123" gradientUnits="userSpaceOnUse" id="color-1"><stop offset="0" stop-color="#81d3f1"/><stop offset="0.3076" stop-color="#7fd0ef"/><stop offset="0.495" stop-color="#78c7e8"/><stop offset="0.6502" stop-color="#6dbbdf"/><stop offset="0.787" stop-color="#5dabd3"/><stop offset="0.91" stop-color="#4998c4"/><stop offset="1" stop-color="#4a99c5"/><stop offset="1" stop-color="#000000"/></linearGradient><linearGradient x1="310.4746" y1="201.2866" x2="311.24327" y2="171.76914" gradientUnits="userSpaceOnUse" id="color-2"><stop offset="0" stop-color="#81d3f1"/><stop offset="0.3076" stop-color="#7fd0ef"/><stop offset="0.495" stop-color="#78c7e8"/><stop offset="0.6502" stop-color="#6dbbdf"/><stop offset="0.787" stop-color="#5dabd3"/><stop offset="0.91" stop-color="#4998c4"/><stop offset="1" stop-color="#4a99c5"/><stop offset="1" stop-color="#000000"/></linearGradient><linearGradient x1="313.44726" y1="201.36402" x2="314.21593" y2="171.84653" gradientUnits="userSpaceOnUse" id="color-3"><stop offset="0" stop-color="#81d3f1"/><stop offset="0.3076" stop-color="#7fd0ef"/><stop offset="0.495" stop-color="#78c7e8"/><stop offset="0.6502" stop-color="#6dbbdf"/><stop offset="0.787" stop-color="#5dabd3"/><stop offset="0.91" stop-color="#4998c4"/><stop offset="1" stop-color="#4a99c5"/><stop offset="1" stop-color="#000000"/></linearGradient><linearGradient x1="316.41993" y1="201.44142" x2="317.18863" y2="171.92395" gradientUnits="userSpaceOnUse" id="color-4"><stop offset="0" stop-color="#81d3f1"/><stop offset="0.3076" stop-color="#7fd0ef"/><stop offset="0.495" stop-color="#78c7e8"/><stop offset="0.6502" stop-color="#6dbbdf"/><stop offset="0.787" stop-color="#5dabd3"/><stop offset="0.91" stop-color="#4998c4"/><stop offset="1" stop-color="#4a99c5"/><stop offset="1" stop-color="#000000"/></linearGradient><linearGradient x1="319.3926" y1="201.51884" x2="320.1613" y2="172.00137" gradientUnits="userSpaceOnUse" id="color-5"><stop offset="0" stop-color="#81d3f1"/><stop offset="0.3076" stop-color="#7fd0ef"/><stop offset="0.495" stop-color="#78c7e8"/><stop offset="0.6502" stop-color="#6dbbdf"/><stop offset="0.787" stop-color="#5dabd3"/><stop offset="0.91" stop-color="#4998c4"/><stop offset="1" stop-color="#4a99c5"/><stop offset="1" stop-color="#000000"/></linearGradient><linearGradient x1="322.36527" y1="201.59626" x2="323.13396" y2="172.07879" gradientUnits="userSpaceOnUse" id="color-6"><stop offset="0" stop-color="#81d3f1"/><stop offset="0.3076" stop-color="#7fd0ef"/><stop offset="0.495" stop-color="#78c7e8"/><stop offset="0.6502" stop-color="#6dbbdf"/><stop offset="0.787" stop-color="#5dabd3"/><stop offset="0.91" stop-color="#4998c4"/><stop offset="1" stop-color="#4a99c5"/><stop offset="1" stop-color="#000000"/></linearGradient><linearGradient x1="325.3439" y1="201.67381" x2="326.11257" y2="172.15634" gradientUnits="userSpaceOnUse" id="color-7"><stop offset="0" stop-color="#81d3f1"/><stop offset="0.3076" stop-color="#7fd0ef"/><stop offset="0.495" stop-color="#78c7e8"/><stop offset="0.6502" stop-color="#6dbbdf"/><stop offset="0.787" stop-color="#5dabd3"/><stop offset="0.91" stop-color="#4998c4"/><stop offset="1" stop-color="#4a99c5"/><stop offset="1" stop-color="#000000"/></linearGradient></defs><g transform="translate(-287.5,-147.5)"><g stroke-miterlimit="10"><path d="M295,210c-2.76142,0 -5,-2.23858 -5,-5v-50c0,-2.76142 2.23858,-5 5,-5h50c2.76142,0 5,2.23858 5,5v50c0,2.76142 -2.23858,5 -5,5zM320.64388,189.64229c5.52285,0 10,-4.47715 10,-10c0,-5.52285 -4.47715,-10 -10,-10c-5.52285,0 -10,4.47715 -10,10c0,5.52285 4.47715,10 10,10z" fill="#ffffff" stroke="#000000" stroke-width="5"/><path d="M298.53736,200.67568v-41.35135h42.92528v41.35135z" fill="#ffffff" stroke="none" stroke-width="0"/><text transform="translate(299.87893,161.01446) scale(0.16768,0.16768)" font-size="40" xml:space="preserve" fill="#000000" stroke="none" stroke-width="1" font-family="Bits and Bytes" font-weight="normal" text-anchor="start"><tspan x="0" dy="0">Create</tspan></text><g stroke="none" stroke-width="1"><path d="M328.5217,207.28674h-23.8092l0.13497,-30.42286l2.4835,-4.967h5.53388l2.29454,-9.23214l13.36231,-1.07978zM315.6183,165.39119v0l0.13497,9.934l11.82362,-0.37792v-9.09717v-1.29574l-9.79903,0.70186l-0.02699,-0.027l-2.13257,0.16197zM306.46715,195.49011v4.4541h2.18656v-6.58667v-15.17094h-2.18656zM310.08442,199.91722h1.61967v-1.59268v-7.9364v-12.20154h-2.18656v14.33411v7.4235h0.56688zM312.59491,199.99821h2.18656v-4.58907v-7.9364v-9.25913h-2.18656v11.36471v7.9364v2.42951zM317.83185,199.94422v-7.55848v-7.9094v-6.28973h-2.18656v8.4223v7.90941v5.42591zM320.88224,199.94422v-10.52788v-7.88241v-3.32033h-2.18656v5.4529v7.88241v8.39531zM323.93262,199.94422v-13.52427v-7.85542v-0.37792h-2.18656v2.51049v7.88241v11.36471zM324.79645,199.91722h2.18656v-16.49367v-5.23694h-2.18656v7.39651z" fill="#c3e8f3"/><path d="M308.6807,178.1866v15.17094l-2.21355,2.10557v-17.27652h2.21355" fill="#c3e8f3"/><path d="M308.6807,178.1866v15.17094l-2.21355,2.10557v-17.27652h2.21355" fill="#5dabd3"/><path d="M311.73108,178.1866v12.20154l-2.21355,2.13257v-14.33411h2.21355" fill="#c3e8f3"/><path d="M311.73108,178.1866v12.20154l-2.21355,2.13257v-14.33411h2.21355" fill="#5dabd3"/><path d="M310.08442,199.94422l1.64667,-1.59268v1.59268h-1.64667" fill="#c3e8f3"/><path d="M310.08442,199.94422l1.64667,-1.59268v1.59268h-1.64667" fill="#70bfe2"/><path d="M314.78147,178.1866v9.25913l-2.18656,2.10558v-11.36471h2.18656" fill="#c3e8f3"/><path d="M314.78147,178.1866v9.25913l-2.18656,2.10558v-11.36471h2.18656" fill="#5dabd3"/><path d="M312.59491,197.48771l2.18656,-2.13257v4.58907h-2.18656v-2.45651" fill="#c3e8f3"/><path d="M312.59491,197.48771l2.18656,-2.13257v4.58907h-2.18656v-2.45651" fill="#70bfe2"/><path d="M315.64529,194.51831l2.18656,-2.13257v7.55848h-2.18656v-5.42591" fill="#c3e8f3"/><path d="M315.64529,194.51831l2.18656,-2.13257v7.55848h-2.18656v-5.42591" fill="#70bfe2"/><path d="M317.83185,178.1866v6.28973l-2.18656,2.13257v-8.4223h2.18656" fill="#c3e8f3"/><path d="M317.83185,178.1866v6.28973l-2.18656,2.13257v-8.4223h2.18656" fill="#5dabd3"/><path d="M320.88224,178.1866v3.34733l-2.18656,2.10557v-5.4529h2.18656" fill="#c3e8f3"/><path d="M320.88224,178.1866v3.34733l-2.18656,2.10557v-5.4529h2.18656" fill="#5dabd3"/><path d="M318.69568,191.54891l2.18656,-2.15957v10.55487h-2.18656v-8.39531" fill="#c3e8f3"/><path d="M318.69568,191.54891l2.18656,-2.15957v10.55487h-2.18656v-8.39531" fill="#70bfe2"/><path d="M323.93262,178.1866v0.37792l-2.18656,2.13257v-2.51049h2.18656" fill="#c3e8f3"/><path d="M323.93262,178.1866v0.37792l-2.18656,2.13257v-2.51049h2.18656" fill="#5dabd3"/><path d="M321.74606,188.55251l2.18656,-2.13257v13.52427h-2.18656v-11.3917" fill="#c3e8f3"/><path d="M321.74606,188.55251l2.18656,-2.13257v13.52427h-2.18656v-11.3917" fill="#70bfe2"/><path d="M326.98301,183.42355v16.52067h-2.18656v-14.36111l2.18656,-2.15956" fill="#c3e8f3"/><path d="M326.98301,183.42355v16.52067h-2.18656v-14.36111l2.18656,-2.15956" fill="#70bfe2"/><path d="M328.5217,207.28674v-45.70178l7.23454,1.72765l0.32394,43.97413h-7.55848" fill="#40b4e5"/><path d="M320.80126,172.7607l-3.05039,-7.50449l9.79902,-0.70186l-2.05159,0.18896l-3.10437,7.96339zM319.26257,165.17523l2.13257,4.61607l2.24055,-4.967z" fill="#c3e8f3"/><path d="M320.80126,172.7607l-3.05039,-7.50449l9.79902,-0.70186l-2.05159,0.18896l-3.10437,7.96339zM319.26257,165.17523l2.13257,4.61607l2.24055,-4.967z" fill="#5dabd3"/><path d="M315.72628,175.32518l-0.13497,-9.907h0.02699l4.02219,9.71804l3.86022,-0.08098l4.04918,-9.20514v9.09717l-11.82361,0.37792" fill="#c3e8f3"/><path d="M315.72628,175.32518l-0.13497,-9.907h0.02699l4.02219,9.71804l3.86022,-0.08098l4.04918,-9.20514v9.09717l-11.82361,0.37792" fill="#7dceed"/><path d="M323.50071,175.05524l-3.86022,0.08098l-4.02219,-9.71804v-0.02699l2.10558,-0.16197l0.02699,0.027l3.02339,7.50449l1.61967,-0.05399l3.10437,-7.96339l2.05159,-0.18896v1.29574l-4.04918,9.20514" fill="#9bdbf1"/><path d="M323.63568,164.8243l-2.24055,4.967l-2.13257,-4.61607l4.37312,-0.35093" fill="#9bdbf1"/><path d="M308.6807,199.94422h-2.21355v-4.4811l2.21355,-2.10557v6.58667" fill="#c3e8f3"/><path d="M308.6807,199.94422h-2.21355v-4.4811l2.21355,-2.10557v6.58667" fill="url(#color-1)"/><path d="M308.6807,199.94422h-2.21355v-4.4811l2.21355,-2.10557v6.58667" fill="#d9f0f6" opacity="0.56"/><path d="M311.73108,190.38814v7.96339l-1.64667,1.59268h-0.56688v-7.4235l2.21355,-2.13257" fill="#c3e8f3"/><path d="M311.73108,190.38814v7.96339l-1.64667,1.59268h-0.56688v-7.4235l2.21355,-2.13257" fill="url(#color-2)"/><path d="M311.73108,190.38814v7.96339l-1.64667,1.59268h-0.56688v-7.4235l2.21355,-2.13257" fill="#d9f0f6" opacity="0.56"/><path d="M314.78147,187.44574v7.90941l-2.18656,2.13257v-7.9364l2.18656,-2.10558" fill="#c3e8f3"/><path d="M314.78147,187.44574v7.90941l-2.18656,2.13257v-7.9364l2.18656,-2.10558" fill="url(#color-3)"/><path d="M314.78147,187.44574v7.90941l-2.18656,2.13257v-7.9364l2.18656,-2.10558" fill="#d9f0f6" opacity="0.56"/><path d="M317.83185,184.47634v7.9094l-2.18656,2.13257v-7.90941l2.18656,-2.13257" fill="#c3e8f3"/><path d="M317.83185,184.47634v7.9094l-2.18656,2.13257v-7.90941l2.18656,-2.13257" fill="url(#color-4)"/><path d="M317.83185,184.47634v7.9094l-2.18656,2.13257v-7.90941l2.18656,-2.13257" fill="#d9f0f6" opacity="0.56"/><path d="M320.88224,181.53393v7.85541l-2.18656,2.15957v-7.90941l2.18656,-2.10557" fill="#c3e8f3"/><path d="M320.88224,181.53393v7.85541l-2.18656,2.15957v-7.90941l2.18656,-2.10557" fill="url(#color-5)"/><path d="M320.88224,181.53393v7.85541l-2.18656,2.15957v-7.90941l2.18656,-2.10557" fill="#d9f0f6" opacity="0.56"/><path d="M323.93262,178.56453v7.85542l-2.18656,2.13257v-7.85541l2.18656,-2.13257" fill="#c3e8f3"/><path d="M323.93262,178.56453v7.85542l-2.18656,2.13257v-7.85541l2.18656,-2.13257" fill="url(#color-6)"/><path d="M323.93262,178.56453v7.85542l-2.18656,2.13257v-7.85541l2.18656,-2.13257" fill="#d9f0f6" opacity="0.56"/><path d="M326.98301,178.1866v5.23694l-2.18656,2.15956v-7.39651h2.18656" fill="#c3e8f3"/><path d="M326.98301,178.1866v5.23694l-2.18656,2.15956v-7.39651h2.18656" fill="url(#color-7)"/><path d="M326.98301,178.1866v5.23694l-2.18656,2.15956v-7.39651h2.18656" fill="#d9f0f6" opacity="0.56"/></g></g></g></svg>