<svg version="1.1" xmlns="http://www.w3.org/2000/svg" xmlns:xlink="http://www.w3.org/1999/xlink" width="26.19815" height="25.48585" viewBox="0,0,26.19815,25.48585"><g transform="translate(-319.18198,-178.72035)"><g stroke="#000000" stroke-width="2" stroke-miterlimit="10"><path d="M344.38013,203.2062c-0.54035,0.57216 -1.36115,0.67452 -1.8333,0.22862l-19.56789,-18.47992c-0.47215,-0.44591 -0.41687,-1.27121 0.12349,-1.84337v0c0.54035,-0.57216 1.36115,-0.67452 1.8333,-0.22862l19.56789,18.47992c0.47215,0.44591 0.41687,1.27121 -0.12349,1.84337z" fill="#c58a38"/><path d="M329.49292,196.53983c-1.47406,1.56085 -3.99895,1.57019 -5.63949,0.02087l-2.34703,-2.21653c-1.64054,-1.54932 -1.77549,-4.07062 -0.30142,-5.63147l7.38103,-7.81558c1.47406,-1.56085 3.99895,-1.57019 5.63949,-0.02087l2.34703,2.21653c1.64054,1.54932 1.77549,4.07062 0.30142,5.63147z" fill="#cecece"/></g></g></svg>